<svg xmlns="http://www.w3.org/2000/svg" xmlns:xlink="http://www.w3.org/1999/xlink" width="2000" zoomAndPan="magnify" viewBox="0 0 1500 1499.999933" height="2000" preserveAspectRatio="xMidYMid meet" version="1.0"><defs><g/><clipPath id="9d7478b140"><rect x="0" width="1227" y="0" height="551"/></clipPath><clipPath id="bacb852777"><path d="M 1331.992188 559.308594 L 1387.492188 559.308594 L 1387.492188 614.808594 L 1331.992188 614.808594 Z M 1331.992188 559.308594 " clip-rule="nonzero"/></clipPath><clipPath id="16d31868ef"><rect x="0" width="1251" y="0" height="97"/></clipPath></defs><g transform="matrix(1, 0, 0, 1, 120, 459)"><g clip-path="url(#9d7478b140)"><g fill="#000000" fill-opacity="1"><g transform="translate(6.719811, 369.551982)"><g><path d="M 105.59375 4.984375 C 93.5625 4.984375 82.191406 4.175781 71.484375 2.5625 C 60.785156 0.945312 51.007812 -1.101562 42.15625 -3.59375 C 33.3125 -6.082031 25.566406 -8.550781 18.921875 -11 L 13.5 -57.484375 C 24.832031 -52.503906 38.566406 -47.882812 54.703125 -43.625 C 70.835938 -39.375 87.703125 -37.25 105.296875 -37.25 C 121.628906 -37.25 133.117188 -38.617188 139.765625 -41.359375 C 146.410156 -44.097656 149.734375 -48.691406 149.734375 -55.140625 L 149.734375 -55.578125 C 149.734375 -59.984375 148.242188 -63.429688 145.265625 -65.921875 C 142.285156 -68.410156 137.078125 -70.410156 129.640625 -71.921875 C 122.210938 -73.441406 111.898438 -74.835938 98.703125 -76.109375 C 78.753906 -78.160156 62.375 -81.210938 49.5625 -85.265625 C 36.757812 -89.328125 27.300781 -95.296875 21.1875 -103.171875 C 15.082031 -111.046875 12.03125 -121.628906 12.03125 -134.921875 L 12.03125 -135.796875 C 12.03125 -154.671875 19.484375 -168.820312 34.390625 -178.25 C 49.296875 -187.6875 71.613281 -192.40625 101.34375 -192.40625 C 120.5 -192.40625 136.96875 -190.890625 150.75 -187.859375 C 164.539062 -184.835938 176.375 -181.320312 186.25 -177.3125 L 191.96875 -134.78125 C 180.144531 -139.863281 166.921875 -143.941406 152.296875 -147.015625 C 137.679688 -150.097656 122.359375 -151.640625 106.328125 -151.640625 C 95.078125 -151.640625 86.421875 -150.976562 80.359375 -149.65625 C 74.304688 -148.34375 70.15625 -146.488281 67.90625 -144.09375 C 65.65625 -141.695312 64.53125 -138.785156 64.53125 -135.359375 L 64.53125 -135.21875 C 64.53125 -131.601562 65.75 -128.570312 68.1875 -126.125 C 70.632812 -123.675781 75.453125 -121.597656 82.640625 -119.890625 C 89.828125 -118.179688 100.457031 -116.640625 114.53125 -115.265625 C 134.09375 -113.316406 150.398438 -110.507812 163.453125 -106.84375 C 176.503906 -103.175781 186.28125 -97.503906 192.78125 -89.828125 C 199.28125 -82.148438 202.53125 -71.421875 202.53125 -57.640625 L 202.53125 -56.3125 C 202.53125 -35.195312 194.609375 -19.703125 178.765625 -9.828125 C 162.929688 0.046875 138.539062 4.984375 105.59375 4.984375 Z M 105.59375 4.984375 "/></g></g></g><g fill="#000000" fill-opacity="1"><g transform="translate(221.560938, 369.551982)"><g><path d="M 162.9375 0 L 82.5625 -81.6875 L 69.375 -81.6875 L 69.375 -110 L 82.71875 -110 L 162.78125 -187.421875 L 225.5625 -187.421875 L 126.265625 -91.65625 L 126.265625 -102.515625 L 227.90625 0 Z M 21.859375 0 L 21.859375 -187.421875 L 73.328125 -187.421875 L 73.328125 0 Z M 21.859375 0 "/></g></g></g><g fill="#000000" fill-opacity="1"><g transform="translate(450.626962, 369.551982)"><g><path d="M 73.46875 0 L 22 0 L 22 -187.421875 L 73.46875 -187.421875 Z M 73.46875 0 "/></g></g></g><g fill="#000000" fill-opacity="1"><g transform="translate(546.095616, 369.551982)"><g><path d="M 199.75 -40.484375 L 199.75 0 L 11.578125 0 L 11.578125 -39.15625 L 131.25 -146.953125 L 13.34375 -146.953125 L 13.34375 -187.421875 L 197.84375 -187.421875 L 197.84375 -148.265625 L 77.734375 -40.484375 Z M 199.75 -40.484375 "/></g></g></g><g fill="#000000" fill-opacity="1"><g transform="translate(757.417177, 369.551982)"><g><path d="M 21.859375 0 L 21.859375 -187.421875 L 72.15625 -187.421875 L 72.15625 0 Z M 22.4375 0 L 22.4375 -39.75 L 201.21875 -39.75 L 201.21875 0 Z M 48.109375 -75.96875 L 48.109375 -113.8125 L 195.640625 -113.8125 L 195.640625 -75.96875 Z M 22.4375 -147.6875 L 22.4375 -187.421875 L 198.859375 -187.421875 L 198.859375 -147.6875 Z M 22.4375 -147.6875 "/></g></g></g><g fill="#000000" fill-opacity="1"><g transform="translate(974.604724, 369.551982)"><g><path d="M 93.421875 -187.421875 L 177.015625 -52.65625 L 179.5 -52.65625 L 178.046875 -120.40625 L 178.046875 -187.421875 L 228.640625 -187.421875 L 228.640625 0 L 160.296875 0 L 73.765625 -139.171875 L 71.125 -139.171875 L 72.59375 -69.515625 L 72.59375 0 L 21.859375 0 L 21.859375 -187.421875 Z M 93.421875 -187.421875 "/></g></g></g></g></g><g clip-path="url(#bacb852777)"><path fill="#000000" d="M 1359.742188 610.617188 C 1346.753906 610.617188 1336.1875 600.050781 1336.1875 587.0625 C 1336.1875 574.070312 1346.753906 563.503906 1359.742188 563.503906 C 1372.734375 563.503906 1383.304688 574.070312 1383.304688 587.0625 C 1383.304688 600.050781 1372.734375 610.617188 1359.742188 610.617188 Z M 1379.367188 567.4375 C 1374.125 562.195312 1367.15625 559.308594 1359.742188 559.308594 C 1352.332031 559.308594 1345.363281 562.195312 1340.121094 567.4375 C 1334.878906 572.679688 1331.992188 579.648438 1331.992188 587.0625 C 1331.992188 594.472656 1334.878906 601.441406 1340.121094 606.683594 C 1345.363281 611.925781 1352.332031 614.8125 1359.742188 614.8125 C 1367.15625 614.8125 1374.125 611.925781 1379.367188 606.683594 C 1384.609375 601.441406 1387.496094 594.472656 1387.496094 587.0625 C 1387.496094 579.648438 1384.609375 572.679688 1379.367188 567.4375 " fill-opacity="1" fill-rule="nonzero"/></g><path fill="#000000" d="M 1340.601562 578.847656 L 1340.601562 582.132812 L 1346.171875 582.132812 L 1346.171875 596.265625 L 1350.203125 596.265625 L 1350.203125 582.132812 L 1355.78125 582.132812 L 1355.78125 578.847656 L 1340.601562 578.847656 " fill-opacity="1" fill-rule="nonzero"/><path fill="#000000" d="M 1377.527344 578.847656 L 1374.214844 578.847656 L 1367.796875 589.671875 L 1361.277344 578.847656 L 1357.941406 578.847656 L 1357.941406 596.265625 L 1361.722656 596.265625 L 1361.722656 586.039062 L 1366.824219 594.425781 L 1368.644531 594.425781 L 1373.769531 585.816406 L 1373.792969 596.265625 L 1377.574219 596.265625 L 1377.527344 578.847656 " fill-opacity="1" fill-rule="nonzero"/><g transform="matrix(1, 0, 0, 1, 134, 861)"><g clip-path="url(#16d31868ef)"><g fill="#000000" fill-opacity="1"><g transform="translate(2.207807, 61.332778)"><g><path d="M 1.4375 0 L 17.203125 -33.515625 L 24.59375 -33.515625 L 40.3125 0 L 35.296875 0 L 21.328125 -30.453125 L 20.484375 -30.453125 L 6.421875 0 Z M 9.96875 -9.8125 L 9.96875 -13.71875 L 31.765625 -13.71875 L 31.765625 -9.8125 Z M 9.96875 -9.8125 "/></g></g></g><g fill="#000000" fill-opacity="1"><g transform="translate(62.133287, 61.332778)"><g/></g></g><g fill="#000000" fill-opacity="1"><g transform="translate(92.502465, 61.332778)"><g><path d="M 8.65625 -11.28125 L 8.65625 -15.1875 L 24.125 -15.1875 C 27.007812 -15.1875 29.109375 -15.800781 30.421875 -17.03125 C 31.734375 -18.269531 32.390625 -19.976562 32.390625 -22.15625 L 32.390625 -22.640625 C 32.390625 -24.816406 31.734375 -26.519531 30.421875 -27.75 C 29.109375 -28.988281 27.007812 -29.609375 24.125 -29.609375 L 8.46875 -29.609375 L 8.46875 -33.515625 L 24.125 -33.515625 C 28.65625 -33.515625 31.988281 -32.539062 34.125 -30.59375 C 36.269531 -28.644531 37.34375 -25.992188 37.34375 -22.640625 L 37.34375 -22.140625 C 37.34375 -18.816406 36.269531 -16.175781 34.125 -14.21875 C 31.988281 -12.257812 28.65625 -11.28125 24.125 -11.28125 Z M 5.140625 0 L 5.140625 -33.515625 L 9.890625 -33.515625 L 9.890625 0 Z M 5.140625 0 "/></g></g></g><g fill="#000000" fill-opacity="1"><g transform="translate(150.64459, 61.332778)"><g><path d="M 8.921875 -13.84375 L 8 -17.171875 L 9.09375 -17.25 C 9.882812 -19.84375 11.265625 -21.882812 13.234375 -23.375 C 15.203125 -24.875 17.632812 -25.625 20.53125 -25.625 C 21.550781 -25.625 22.429688 -25.539062 23.171875 -25.375 C 23.910156 -25.207031 24.550781 -25.019531 25.09375 -24.8125 L 25.484375 -20.484375 C 24.804688 -20.722656 24.03125 -20.925781 23.15625 -21.09375 C 22.28125 -21.257812 21.347656 -21.34375 20.359375 -21.34375 C 17.710938 -21.34375 15.390625 -20.703125 13.390625 -19.421875 C 11.398438 -18.148438 9.910156 -16.289062 8.921875 -13.84375 Z M 4.4375 0 L 4.4375 -25.09375 L 9.125 -25.09375 L 8.921875 -16.34375 L 9.125 -16.125 L 9.125 0 Z M 4.4375 0 "/></g></g></g><g fill="#000000" fill-opacity="1"><g transform="translate(195.411658, 61.332778)"><g><path d="M 4.484375 0 L 4.484375 -25.09375 L 9.171875 -25.09375 L 9.171875 0 Z M 6.8125 -29.890625 C 5.800781 -29.890625 5.039062 -30.117188 4.53125 -30.578125 C 4.03125 -31.035156 3.78125 -31.664062 3.78125 -32.46875 L 3.78125 -32.578125 C 3.78125 -33.378906 4.03125 -34.003906 4.53125 -34.453125 C 5.039062 -34.898438 5.800781 -35.125 6.8125 -35.125 C 7.84375 -35.125 8.613281 -34.894531 9.125 -34.4375 C 9.644531 -33.976562 9.90625 -33.359375 9.90625 -32.578125 L 9.90625 -32.46875 C 9.90625 -31.664062 9.644531 -31.035156 9.125 -30.578125 C 8.613281 -30.117188 7.84375 -29.890625 6.8125 -29.890625 Z M 6.8125 -29.890625 "/></g></g></g><g fill="#000000" fill-opacity="1"><g transform="translate(227.275668, 61.332778)"><g><path d="M 17.625 -3.28125 L 28.09375 -25.09375 L 33.09375 -25.09375 L 20.921875 0 L 13.453125 0 L 1.1875 -25.09375 L 6.234375 -25.09375 L 16.78125 -3.28125 Z M 17.625 -3.28125 "/></g></g></g><g fill="#000000" fill-opacity="1"><g transform="translate(279.753064, 61.332778)"><g><path d="M 25.984375 0 L 26.203125 -7.53125 L 26.0625 -8.5 L 26.0625 -15.078125 C 26.0625 -17.316406 25.296875 -19.03125 23.765625 -20.21875 C 22.242188 -21.40625 19.875 -22 16.65625 -22 C 13.957031 -22 11.554688 -21.65625 9.453125 -20.96875 C 7.347656 -20.289062 5.5 -19.539062 3.90625 -18.71875 L 4.4375 -22.65625 C 5.289062 -23.132812 6.335938 -23.617188 7.578125 -24.109375 C 8.816406 -24.609375 10.242188 -25.023438 11.859375 -25.359375 C 13.484375 -25.691406 15.300781 -25.859375 17.3125 -25.859375 C 19.757812 -25.859375 21.835938 -25.582031 23.546875 -25.03125 C 25.265625 -24.476562 26.644531 -23.703125 27.6875 -22.703125 C 28.738281 -21.710938 29.5 -20.539062 29.96875 -19.1875 C 30.445312 -17.84375 30.6875 -16.367188 30.6875 -14.765625 L 30.6875 0 Z M 13.0625 0.734375 C 9.738281 0.734375 7.140625 0.0976562 5.265625 -1.171875 C 3.398438 -2.453125 2.46875 -4.289062 2.46875 -6.6875 L 2.46875 -6.953125 C 2.46875 -9.554688 3.503906 -11.453125 5.578125 -12.640625 C 7.648438 -13.828125 10.863281 -14.578125 15.21875 -14.890625 L 26.59375 -15.703125 L 26.671875 -12.515625 L 15.546875 -11.671875 C 12.441406 -11.421875 10.269531 -10.988281 9.03125 -10.375 C 7.800781 -9.769531 7.1875 -8.757812 7.1875 -7.34375 L 7.1875 -7.140625 C 7.1875 -5.835938 7.796875 -4.84375 9.015625 -4.15625 C 10.242188 -3.46875 12.003906 -3.125 14.296875 -3.125 C 16.566406 -3.125 18.53125 -3.453125 20.1875 -4.109375 C 21.851562 -4.773438 23.195312 -5.671875 24.21875 -6.796875 C 25.238281 -7.929688 25.90625 -9.15625 26.21875 -10.46875 L 26.953125 -7.109375 L 26.046875 -7.109375 C 25.710938 -5.742188 25.046875 -4.46875 24.046875 -3.28125 C 23.054688 -2.09375 21.664062 -1.125 19.875 -0.375 C 18.09375 0.363281 15.820312 0.734375 13.0625 0.734375 Z M 13.0625 0.734375 "/></g></g></g><g fill="#000000" fill-opacity="1"><g transform="translate(332.518915, 61.332778)"><g><path d="M 16.859375 0.703125 C 14.148438 0.703125 11.988281 0.328125 10.375 -0.421875 C 8.769531 -1.171875 7.609375 -2.300781 6.890625 -3.8125 C 6.179688 -5.320312 5.828125 -7.222656 5.828125 -9.515625 L 5.828125 -22.3125 L 10.484375 -22.3125 L 10.484375 -10 C 10.484375 -7.6875 11.039062 -5.976562 12.15625 -4.875 C 13.269531 -3.769531 15.195312 -3.21875 17.9375 -3.21875 C 19.476562 -3.21875 20.988281 -3.390625 22.46875 -3.734375 C 23.957031 -4.078125 25.347656 -4.570312 26.640625 -5.21875 L 26.140625 -1.1875 C 24.941406 -0.601562 23.539062 -0.144531 21.9375 0.1875 C 20.332031 0.53125 18.640625 0.703125 16.859375 0.703125 Z M 0.234375 -20.953125 L 0.234375 -24.578125 L 26.59375 -24.578125 L 26.09375 -20.953125 Z M 5.875 -24.125 L 5.875 -31.78125 L 10.546875 -32.28125 L 10.359375 -24.125 Z M 5.875 -24.125 "/></g></g></g><g fill="#000000" fill-opacity="1"><g transform="translate(379.384003, 61.332778)"><g><path d="M 18.5625 0.78125 C 13.34375 0.78125 9.414062 -0.347656 6.78125 -2.609375 C 4.144531 -4.867188 2.828125 -8.082031 2.828125 -12.25 L 2.828125 -12.875 C 2.828125 -16.96875 4.09375 -20.160156 6.625 -22.453125 C 9.164062 -24.742188 12.820312 -25.890625 17.59375 -25.890625 C 20.84375 -25.890625 23.5625 -25.375 25.75 -24.34375 C 27.9375 -23.320312 29.582031 -21.882812 30.6875 -20.03125 C 31.800781 -18.175781 32.359375 -16.019531 32.359375 -13.5625 L 32.359375 -13.40625 C 32.359375 -13 32.335938 -12.578125 32.296875 -12.140625 C 32.253906 -11.703125 32.1875 -11.3125 32.09375 -10.96875 L 27.71875 -10.96875 C 27.769531 -11.363281 27.804688 -11.804688 27.828125 -12.296875 C 27.847656 -12.785156 27.859375 -13.257812 27.859375 -13.71875 C 27.859375 -15.445312 27.472656 -16.941406 26.703125 -18.203125 C 25.929688 -19.472656 24.785156 -20.453125 23.265625 -21.140625 C 21.742188 -21.835938 19.851562 -22.1875 17.59375 -22.1875 C 14.257812 -22.1875 11.75 -21.40625 10.0625 -19.84375 C 8.375 -18.289062 7.53125 -16.171875 7.53125 -13.484375 L 7.53125 -11.75 C 7.53125 -10.46875 7.742188 -9.296875 8.171875 -8.234375 C 8.597656 -7.171875 9.273438 -6.25 10.203125 -5.46875 C 11.128906 -4.6875 12.335938 -4.085938 13.828125 -3.671875 C 15.328125 -3.265625 17.144531 -3.0625 19.28125 -3.0625 C 21.65625 -3.0625 23.867188 -3.34375 25.921875 -3.90625 C 27.972656 -4.476562 29.925781 -5.3125 31.78125 -6.40625 L 31.265625 -2.40625 C 29.640625 -1.394531 27.773438 -0.609375 25.671875 -0.046875 C 23.578125 0.503906 21.207031 0.78125 18.5625 0.78125 Z M 4.984375 -10.96875 L 4.984375 -14.484375 L 31.1875 -14.484375 L 31.1875 -10.96875 Z M 4.984375 -10.96875 "/></g></g></g><g fill="#000000" fill-opacity="1"><g transform="translate(432.621921, 61.332778)"><g/></g></g><g fill="#000000" fill-opacity="1"><g transform="translate(462.991099, 61.332778)"><g><path d="M 9.96875 0 L 5.140625 0 L 5.140625 -33.515625 L 9.96875 -33.515625 Z M 7.609375 -3.953125 L 33.46875 -3.953125 L 33.46875 0 L 7.609375 0 Z M 7.609375 -3.953125 "/></g></g></g><g fill="#000000" fill-opacity="1"><g transform="translate(516.910905, 61.332778)"><g><path d="M 4.484375 0 L 4.484375 -25.09375 L 9.171875 -25.09375 L 9.171875 0 Z M 6.8125 -29.890625 C 5.800781 -29.890625 5.039062 -30.117188 4.53125 -30.578125 C 4.03125 -31.035156 3.78125 -31.664062 3.78125 -32.46875 L 3.78125 -32.578125 C 3.78125 -33.378906 4.03125 -34.003906 4.53125 -34.453125 C 5.039062 -34.898438 5.800781 -35.125 6.8125 -35.125 C 7.84375 -35.125 8.613281 -34.894531 9.125 -34.4375 C 9.644531 -33.976562 9.90625 -33.359375 9.90625 -32.578125 L 9.90625 -32.46875 C 9.90625 -31.664062 9.644531 -31.035156 9.125 -30.578125 C 8.613281 -30.117188 7.84375 -29.890625 6.8125 -29.890625 Z M 6.8125 -29.890625 "/></g></g></g><g fill="#000000" fill-opacity="1"><g transform="translate(548.774915, 61.332778)"><g><path d="M 48.515625 0 L 48.515625 -13.296875 C 48.515625 -14.992188 48.269531 -16.488281 47.78125 -17.78125 C 47.289062 -19.070312 46.476562 -20.082031 45.34375 -20.8125 C 44.207031 -21.550781 42.660156 -21.921875 40.703125 -21.921875 C 38.878906 -21.921875 37.289062 -21.59375 35.9375 -20.9375 C 34.582031 -20.28125 33.484375 -19.390625 32.640625 -18.265625 C 31.804688 -17.148438 31.242188 -15.90625 30.953125 -14.53125 L 30.21875 -18.015625 L 30.8125 -18.015625 C 31.21875 -19.398438 31.882812 -20.679688 32.8125 -21.859375 C 33.738281 -23.035156 34.988281 -23.988281 36.5625 -24.71875 C 38.132812 -25.457031 40.054688 -25.828125 42.328125 -25.828125 C 44.953125 -25.828125 47.054688 -25.347656 48.640625 -24.390625 C 50.234375 -23.441406 51.394531 -22.070312 52.125 -20.28125 C 52.863281 -18.488281 53.234375 -16.328125 53.234375 -13.796875 L 53.234375 0 Z M 4.4375 0 L 4.4375 -25.09375 L 9.125 -25.09375 L 8.921875 -17.546875 L 9.125 -16.921875 L 9.125 0 Z M 26.484375 0 L 26.484375 -13.296875 C 26.484375 -14.992188 26.234375 -16.488281 25.734375 -17.78125 C 25.242188 -19.070312 24.425781 -20.082031 23.28125 -20.8125 C 22.144531 -21.550781 20.597656 -21.921875 18.640625 -21.921875 C 16.828125 -21.921875 15.242188 -21.585938 13.890625 -20.921875 C 12.535156 -20.265625 11.4375 -19.367188 10.59375 -18.234375 C 9.757812 -17.109375 9.191406 -15.847656 8.890625 -14.453125 L 8.3125 -17.984375 L 9.09375 -17.984375 C 9.414062 -19.367188 10.035156 -20.65625 10.953125 -21.84375 C 11.867188 -23.03125 13.101562 -23.988281 14.65625 -24.71875 C 16.21875 -25.457031 18.097656 -25.828125 20.296875 -25.828125 C 23.546875 -25.828125 26.023438 -25.066406 27.734375 -23.546875 C 29.453125 -22.023438 30.523438 -19.816406 30.953125 -16.921875 C 31.035156 -16.515625 31.09375 -16.070312 31.125 -15.59375 C 31.164062 -15.113281 31.1875 -14.671875 31.1875 -14.265625 L 31.1875 0 Z M 26.484375 0 "/></g></g></g><g fill="#000000" fill-opacity="1"><g transform="translate(624.173538, 61.332778)"><g><path d="M 4.484375 0 L 4.484375 -25.09375 L 9.171875 -25.09375 L 9.171875 0 Z M 6.8125 -29.890625 C 5.800781 -29.890625 5.039062 -30.117188 4.53125 -30.578125 C 4.03125 -31.035156 3.78125 -31.664062 3.78125 -32.46875 L 3.78125 -32.578125 C 3.78125 -33.378906 4.03125 -34.003906 4.53125 -34.453125 C 5.039062 -34.898438 5.800781 -35.125 6.8125 -35.125 C 7.84375 -35.125 8.613281 -34.894531 9.125 -34.4375 C 9.644531 -33.976562 9.90625 -33.359375 9.90625 -32.578125 L 9.90625 -32.46875 C 9.90625 -31.664062 9.644531 -31.035156 9.125 -30.578125 C 8.613281 -30.117188 7.84375 -29.890625 6.8125 -29.890625 Z M 6.8125 -29.890625 "/></g></g></g><g fill="#000000" fill-opacity="1"><g transform="translate(656.037548, 61.332778)"><g><path d="M 16.859375 0.703125 C 14.148438 0.703125 11.988281 0.328125 10.375 -0.421875 C 8.769531 -1.171875 7.609375 -2.300781 6.890625 -3.8125 C 6.179688 -5.320312 5.828125 -7.222656 5.828125 -9.515625 L 5.828125 -22.3125 L 10.484375 -22.3125 L 10.484375 -10 C 10.484375 -7.6875 11.039062 -5.976562 12.15625 -4.875 C 13.269531 -3.769531 15.195312 -3.21875 17.9375 -3.21875 C 19.476562 -3.21875 20.988281 -3.390625 22.46875 -3.734375 C 23.957031 -4.078125 25.347656 -4.570312 26.640625 -5.21875 L 26.140625 -1.1875 C 24.941406 -0.601562 23.539062 -0.144531 21.9375 0.1875 C 20.332031 0.53125 18.640625 0.703125 16.859375 0.703125 Z M 0.234375 -20.953125 L 0.234375 -24.578125 L 26.59375 -24.578125 L 26.09375 -20.953125 Z M 5.875 -24.125 L 5.875 -31.78125 L 10.546875 -32.28125 L 10.359375 -24.125 Z M 5.875 -24.125 "/></g></g></g><g fill="#000000" fill-opacity="1"><g transform="translate(702.902637, 61.332778)"><g><path d="M 18.5625 0.78125 C 13.34375 0.78125 9.414062 -0.347656 6.78125 -2.609375 C 4.144531 -4.867188 2.828125 -8.082031 2.828125 -12.25 L 2.828125 -12.875 C 2.828125 -16.96875 4.09375 -20.160156 6.625 -22.453125 C 9.164062 -24.742188 12.820312 -25.890625 17.59375 -25.890625 C 20.84375 -25.890625 23.5625 -25.375 25.75 -24.34375 C 27.9375 -23.320312 29.582031 -21.882812 30.6875 -20.03125 C 31.800781 -18.175781 32.359375 -16.019531 32.359375 -13.5625 L 32.359375 -13.40625 C 32.359375 -13 32.335938 -12.578125 32.296875 -12.140625 C 32.253906 -11.703125 32.1875 -11.3125 32.09375 -10.96875 L 27.71875 -10.96875 C 27.769531 -11.363281 27.804688 -11.804688 27.828125 -12.296875 C 27.847656 -12.785156 27.859375 -13.257812 27.859375 -13.71875 C 27.859375 -15.445312 27.472656 -16.941406 26.703125 -18.203125 C 25.929688 -19.472656 24.785156 -20.453125 23.265625 -21.140625 C 21.742188 -21.835938 19.851562 -22.1875 17.59375 -22.1875 C 14.257812 -22.1875 11.75 -21.40625 10.0625 -19.84375 C 8.375 -18.289062 7.53125 -16.171875 7.53125 -13.484375 L 7.53125 -11.75 C 7.53125 -10.46875 7.742188 -9.296875 8.171875 -8.234375 C 8.597656 -7.171875 9.273438 -6.25 10.203125 -5.46875 C 11.128906 -4.6875 12.335938 -4.085938 13.828125 -3.671875 C 15.328125 -3.265625 17.144531 -3.0625 19.28125 -3.0625 C 21.65625 -3.0625 23.867188 -3.34375 25.921875 -3.90625 C 27.972656 -4.476562 29.925781 -5.3125 31.78125 -6.40625 L 31.265625 -2.40625 C 29.640625 -1.394531 27.773438 -0.609375 25.671875 -0.046875 C 23.578125 0.503906 21.207031 0.78125 18.5625 0.78125 Z M 4.984375 -10.96875 L 4.984375 -14.484375 L 31.1875 -14.484375 L 31.1875 -10.96875 Z M 4.984375 -10.96875 "/></g></g></g><g fill="#000000" fill-opacity="1"><g transform="translate(756.140554, 61.332778)"><g><path d="M 16.65625 0.734375 C 12.300781 0.734375 8.914062 -0.367188 6.5 -2.578125 C 4.09375 -4.796875 2.890625 -8.019531 2.890625 -12.25 L 2.890625 -12.828125 C 2.890625 -17.078125 4.117188 -20.304688 6.578125 -22.515625 C 9.046875 -24.722656 12.441406 -25.828125 16.765625 -25.828125 C 19.035156 -25.828125 21.035156 -25.507812 22.765625 -24.875 C 24.492188 -24.238281 25.90625 -23.328125 27 -22.140625 C 28.09375 -20.953125 28.796875 -19.515625 29.109375 -17.828125 L 30.71875 -17.828125 L 29.265625 -12.984375 C 29.160156 -15.046875 28.597656 -16.75 27.578125 -18.09375 C 26.554688 -19.4375 25.21875 -20.4375 23.5625 -21.09375 C 21.914062 -21.75 20.066406 -22.078125 18.015625 -22.078125 C 14.742188 -22.078125 12.191406 -21.289062 10.359375 -19.71875 C 8.535156 -18.144531 7.625 -15.851562 7.625 -12.84375 L 7.625 -12.328125 C 7.625 -9.335938 8.535156 -7.054688 10.359375 -5.484375 C 12.191406 -3.910156 14.753906 -3.125 18.046875 -3.125 C 20.054688 -3.125 21.851562 -3.457031 23.4375 -4.125 C 25.03125 -4.800781 26.351562 -5.71875 27.40625 -6.875 C 28.457031 -8.039062 29.148438 -9.351562 29.484375 -10.8125 L 30.6875 -7.109375 L 29.1875 -7.109375 C 28.851562 -5.722656 28.179688 -4.4375 27.171875 -3.25 C 26.160156 -2.0625 24.785156 -1.097656 23.046875 -0.359375 C 21.316406 0.367188 19.1875 0.734375 16.65625 0.734375 Z M 29.140625 0 L 29.34375 -7.609375 L 29.265625 -9.046875 L 29.265625 -16.3125 L 29.296875 -17.421875 L 29.15625 -25.078125 L 29.15625 -34.625 L 33.828125 -34.625 L 33.828125 0 Z M 29.140625 0 "/></g></g></g><g fill="#000000" fill-opacity="1"><g transform="translate(812.604236, 61.332778)"><g/></g></g><g fill="#000000" fill-opacity="1"><g transform="translate(842.973414, 61.332778)"><g><path d="M 22.265625 0.78125 C 15.984375 0.78125 11.21875 -0.726562 7.96875 -3.75 C 4.71875 -6.769531 3.09375 -11.035156 3.09375 -16.546875 L 3.09375 -17.078125 C 3.09375 -22.523438 4.695312 -26.753906 7.90625 -29.765625 C 11.113281 -32.785156 15.785156 -34.296875 21.921875 -34.296875 C 24.003906 -34.296875 25.894531 -34.117188 27.59375 -33.765625 C 29.289062 -33.421875 30.789062 -32.976562 32.09375 -32.4375 C 33.40625 -31.894531 34.519531 -31.335938 35.4375 -30.765625 L 35.875 -26.40625 C 34.269531 -27.4375 32.34375 -28.34375 30.09375 -29.125 C 27.84375 -29.914062 25.207031 -30.3125 22.1875 -30.3125 C 17.601562 -30.3125 14.109375 -29.15625 11.703125 -26.84375 C 9.304688 -24.539062 8.109375 -21.289062 8.109375 -17.09375 L 8.109375 -16.578125 C 8.109375 -12.359375 9.320312 -9.082031 11.75 -6.75 C 14.175781 -4.414062 17.804688 -3.25 22.640625 -3.25 C 25.535156 -3.25 28.109375 -3.632812 30.359375 -4.40625 C 32.617188 -5.175781 34.570312 -6.085938 36.21875 -7.140625 L 35.796875 -2.78125 C 34.890625 -2.207031 33.773438 -1.644531 32.453125 -1.09375 C 31.128906 -0.539062 29.613281 -0.09375 27.90625 0.25 C 26.207031 0.601562 24.328125 0.78125 22.265625 0.78125 Z M 22.265625 0.78125 "/></g></g></g><g fill="#000000" fill-opacity="1"><g transform="translate(900.538561, 61.332778)"><g><path d="M 18.40625 0.765625 C 13.34375 0.765625 9.476562 -0.347656 6.8125 -2.578125 C 4.15625 -4.804688 2.828125 -8.03125 2.828125 -12.25 L 2.828125 -12.921875 C 2.828125 -17.109375 4.160156 -20.316406 6.828125 -22.546875 C 9.492188 -24.773438 13.363281 -25.890625 18.4375 -25.890625 C 23.488281 -25.890625 27.347656 -24.773438 30.015625 -22.546875 C 32.679688 -20.316406 34.015625 -17.109375 34.015625 -12.921875 L 34.015625 -12.25 C 34.015625 -8.03125 32.679688 -4.804688 30.015625 -2.578125 C 27.347656 -0.347656 23.476562 0.765625 18.40625 0.765625 Z M 18.4375 -2.984375 C 21.914062 -2.984375 24.59375 -3.78125 26.46875 -5.375 C 28.351562 -6.96875 29.296875 -9.257812 29.296875 -12.25 L 29.296875 -12.921875 C 29.296875 -15.898438 28.359375 -18.179688 26.484375 -19.765625 C 24.617188 -21.347656 21.925781 -22.140625 18.40625 -22.140625 C 14.925781 -22.140625 12.242188 -21.347656 10.359375 -19.765625 C 8.484375 -18.179688 7.546875 -15.898438 7.546875 -12.921875 L 7.546875 -12.25 C 7.546875 -9.257812 8.484375 -6.96875 10.359375 -5.375 C 12.242188 -3.78125 14.9375 -2.984375 18.4375 -2.984375 Z M 18.4375 -2.984375 "/></g></g></g><g fill="#000000" fill-opacity="1"><g transform="translate(955.586044, 61.332778)"><g><path d="M 48.515625 0 L 48.515625 -13.296875 C 48.515625 -14.992188 48.269531 -16.488281 47.78125 -17.78125 C 47.289062 -19.070312 46.476562 -20.082031 45.34375 -20.8125 C 44.207031 -21.550781 42.660156 -21.921875 40.703125 -21.921875 C 38.878906 -21.921875 37.289062 -21.59375 35.9375 -20.9375 C 34.582031 -20.28125 33.484375 -19.390625 32.640625 -18.265625 C 31.804688 -17.148438 31.242188 -15.90625 30.953125 -14.53125 L 30.21875 -18.015625 L 30.8125 -18.015625 C 31.21875 -19.398438 31.882812 -20.679688 32.8125 -21.859375 C 33.738281 -23.035156 34.988281 -23.988281 36.5625 -24.71875 C 38.132812 -25.457031 40.054688 -25.828125 42.328125 -25.828125 C 44.953125 -25.828125 47.054688 -25.347656 48.640625 -24.390625 C 50.234375 -23.441406 51.394531 -22.070312 52.125 -20.28125 C 52.863281 -18.488281 53.234375 -16.328125 53.234375 -13.796875 L 53.234375 0 Z M 4.4375 0 L 4.4375 -25.09375 L 9.125 -25.09375 L 8.921875 -17.546875 L 9.125 -16.921875 L 9.125 0 Z M 26.484375 0 L 26.484375 -13.296875 C 26.484375 -14.992188 26.234375 -16.488281 25.734375 -17.78125 C 25.242188 -19.070312 24.425781 -20.082031 23.28125 -20.8125 C 22.144531 -21.550781 20.597656 -21.921875 18.640625 -21.921875 C 16.828125 -21.921875 15.242188 -21.585938 13.890625 -20.921875 C 12.535156 -20.265625 11.4375 -19.367188 10.59375 -18.234375 C 9.757812 -17.109375 9.191406 -15.847656 8.890625 -14.453125 L 8.3125 -17.984375 L 9.09375 -17.984375 C 9.414062 -19.367188 10.035156 -20.65625 10.953125 -21.84375 C 11.867188 -23.03125 13.101562 -23.988281 14.65625 -24.71875 C 16.21875 -25.457031 18.097656 -25.828125 20.296875 -25.828125 C 23.546875 -25.828125 26.023438 -25.066406 27.734375 -23.546875 C 29.453125 -22.023438 30.523438 -19.816406 30.953125 -16.921875 C 31.035156 -16.515625 31.09375 -16.070312 31.125 -15.59375 C 31.164062 -15.113281 31.1875 -14.671875 31.1875 -14.265625 L 31.1875 0 Z M 26.484375 0 "/></g></g></g><g fill="#000000" fill-opacity="1"><g transform="translate(1030.984667, 61.332778)"><g><path d="M 21.5 0.734375 C 19.226562 0.734375 17.226562 0.414062 15.5 -0.21875 C 13.769531 -0.863281 12.363281 -1.78125 11.28125 -2.96875 C 10.195312 -4.15625 9.488281 -5.578125 9.15625 -7.234375 L 7.578125 -7.234375 L 9 -12.0625 C 9.101562 -10 9.679688 -8.3125 10.734375 -7 C 11.796875 -5.6875 13.15625 -4.710938 14.8125 -4.078125 C 16.476562 -3.453125 18.304688 -3.140625 20.296875 -3.140625 C 23.535156 -3.140625 26.070312 -3.925781 27.90625 -5.5 C 29.738281 -7.082031 30.65625 -9.375 30.65625 -12.375 L 30.65625 -12.90625 C 30.65625 -15.914062 29.738281 -18.195312 27.90625 -19.75 C 26.070312 -21.300781 23.507812 -22.078125 20.21875 -22.078125 C 18.207031 -22.078125 16.40625 -21.734375 14.8125 -21.046875 C 13.226562 -20.367188 11.914062 -19.441406 10.875 -18.265625 C 9.832031 -17.097656 9.132812 -15.78125 8.78125 -14.3125 L 7.546875 -17.984375 L 9.078125 -17.984375 C 9.410156 -19.367188 10.082031 -20.65625 11.09375 -21.84375 C 12.101562 -23.03125 13.476562 -23.988281 15.21875 -24.71875 C 16.957031 -25.457031 19.078125 -25.828125 21.578125 -25.828125 C 25.953125 -25.828125 29.34375 -24.722656 31.75 -22.515625 C 34.164062 -20.304688 35.375 -17.082031 35.375 -12.84375 L 35.375 -12.28125 C 35.375 -8.03125 34.140625 -4.796875 31.671875 -2.578125 C 29.210938 -0.367188 25.820312 0.734375 21.5 0.734375 Z M 4.4375 8.859375 L 4.4375 -25.09375 L 9.125 -25.09375 L 8.921875 -17.5 L 9 -15.625 L 9 -9.078125 L 8.96875 -7.6875 L 9.09375 -0.046875 L 9.09375 8.859375 Z M 4.4375 8.859375 "/></g></g></g><g fill="#000000" fill-opacity="1"><g transform="translate(1087.448348, 61.332778)"><g><path d="M 25.984375 0 L 26.203125 -7.53125 L 26.0625 -8.5 L 26.0625 -15.078125 C 26.0625 -17.316406 25.296875 -19.03125 23.765625 -20.21875 C 22.242188 -21.40625 19.875 -22 16.65625 -22 C 13.957031 -22 11.554688 -21.65625 9.453125 -20.96875 C 7.347656 -20.289062 5.5 -19.539062 3.90625 -18.71875 L 4.4375 -22.65625 C 5.289062 -23.132812 6.335938 -23.617188 7.578125 -24.109375 C 8.816406 -24.609375 10.242188 -25.023438 11.859375 -25.359375 C 13.484375 -25.691406 15.300781 -25.859375 17.3125 -25.859375 C 19.757812 -25.859375 21.835938 -25.582031 23.546875 -25.03125 C 25.265625 -24.476562 26.644531 -23.703125 27.6875 -22.703125 C 28.738281 -21.710938 29.5 -20.539062 29.96875 -19.1875 C 30.445312 -17.84375 30.6875 -16.367188 30.6875 -14.765625 L 30.6875 0 Z M 13.0625 0.734375 C 9.738281 0.734375 7.140625 0.0976562 5.265625 -1.171875 C 3.398438 -2.453125 2.46875 -4.289062 2.46875 -6.6875 L 2.46875 -6.953125 C 2.46875 -9.554688 3.503906 -11.453125 5.578125 -12.640625 C 7.648438 -13.828125 10.863281 -14.578125 15.21875 -14.890625 L 26.59375 -15.703125 L 26.671875 -12.515625 L 15.546875 -11.671875 C 12.441406 -11.421875 10.269531 -10.988281 9.03125 -10.375 C 7.800781 -9.769531 7.1875 -8.757812 7.1875 -7.34375 L 7.1875 -7.140625 C 7.1875 -5.835938 7.796875 -4.84375 9.015625 -4.15625 C 10.242188 -3.46875 12.003906 -3.125 14.296875 -3.125 C 16.566406 -3.125 18.53125 -3.453125 20.1875 -4.109375 C 21.851562 -4.773438 23.195312 -5.671875 24.21875 -6.796875 C 25.238281 -7.929688 25.90625 -9.15625 26.21875 -10.46875 L 26.953125 -7.109375 L 26.046875 -7.109375 C 25.710938 -5.742188 25.046875 -4.46875 24.046875 -3.28125 C 23.054688 -2.09375 21.664062 -1.125 19.875 -0.375 C 18.09375 0.363281 15.820312 0.734375 13.0625 0.734375 Z M 13.0625 0.734375 "/></g></g></g><g fill="#000000" fill-opacity="1"><g transform="translate(1140.214199, 61.332778)"><g><path d="M 28.21875 0 L 28.21875 -13.296875 C 28.21875 -14.992188 27.941406 -16.488281 27.390625 -17.78125 C 26.835938 -19.070312 25.925781 -20.082031 24.65625 -20.8125 C 23.394531 -21.550781 21.679688 -21.921875 19.515625 -21.921875 C 17.535156 -21.921875 15.8125 -21.585938 14.34375 -20.921875 C 12.875 -20.265625 11.679688 -19.367188 10.765625 -18.234375 C 9.847656 -17.109375 9.222656 -15.847656 8.890625 -14.453125 L 8.15625 -17.984375 L 9.078125 -17.984375 C 9.421875 -19.367188 10.085938 -20.65625 11.078125 -21.84375 C 12.066406 -23.03125 13.398438 -23.988281 15.078125 -24.71875 C 16.753906 -25.457031 18.785156 -25.828125 21.171875 -25.828125 C 23.992188 -25.828125 26.265625 -25.347656 27.984375 -24.390625 C 29.710938 -23.429688 30.96875 -22.054688 31.75 -20.265625 C 32.53125 -18.472656 32.921875 -16.328125 32.921875 -13.828125 L 32.921875 0 Z M 4.4375 0 L 4.4375 -25.09375 L 9.125 -25.09375 L 8.921875 -17.546875 L 9.125 -17 L 9.125 0 Z M 4.4375 0 "/></g></g></g><g fill="#000000" fill-opacity="1"><g transform="translate(1195.314171, 61.332778)"><g><path d="M 19.453125 -4.140625 L 16.703125 -2.515625 L 28.0625 -25.09375 L 33.171875 -25.09375 L 15.6875 8.859375 L 10.640625 8.859375 L 16.703125 -2.9375 L 18.484375 -0.9375 L 13.484375 -0.9375 L 1.1875 -25.09375 L 6.296875 -25.09375 L 16.6875 -4.140625 Z M 19.453125 -4.140625 "/></g></g></g></g></g></svg>